<?xml version="1.0" encoding="iso-8859-1"?>
<!-- Generator: Adobe Illustrator 19.0.0, SVG Export Plug-In . SVG Version: 6.00 Build 0)  -->
<svg version="1.1" id="Layer_1" xmlns="http://www.w3.org/2000/svg" xmlns:xlink="http://www.w3.org/1999/xlink" x="0px" y="0px"
	 viewBox="0 0 496 496" style="enable-background:new 0 0 496 496;" xml:space="preserve">
<path style="fill:#5E6664;" d="M96,112V23.2c0-12,4.8-23.2,16.8-23.2H168c12,0,24,11.2,24,23.2V48"/>
<g>
	<path style="fill:#2F423F;" d="M112,0h56c12,0,24,11.2,24,23.2V48"/>
	<path style="fill:#2F423F;" d="M400,112V23.2c0-12-7.2-23.2-19.2-23.2h-56c-12,0-20.8,11.2-20.8,23.2V48"/>
</g>
<path style="fill:#FFC114;" d="M80,456H55.2c-28,0-23.2-25.6-23.2-53.6v-104c0-28,21.6-49.6,50.4-49.6"/>
<g>
	<path style="fill:#FCA12A;" d="M32,367.2v34.4c0,28.8-4.8,54.4,23.2,54.4H80l1.6-138.4L32,367.2z"/>
	<path style="fill:#FCA12A;" d="M416,456h24.8c28,0,23.2-25.6,23.2-53.6v-104c0-28-21.6-49.6-50.4-49.6"/>
</g>
<path style="fill:#F15249;" d="M425.6,404c0,50.4-40.8,92-91.2,92h-172c-50.4,0-91.2-41.6-91.2-92l18.4-264.8
	C88.8,88.8,129.6,48,180,48h135.2c50.4,0,91.2,40.8,91.2,91.2L425.6,404z"/>
<path style="fill:#45C2B3;" d="M384,372c0,37.6-30.4,68-68,68H188c-37.6,0-68-30.4-68-68l0,0c0-37.6,30.4-68,68-68h128
	C353.6,304,384,334.4,384,372L384,372z"/>
<path style="fill:#C93131;" d="M407.2,139.2C407.2,88,366.4,48,316,48h-68v257.6L187.2,448l59.2,48h87.2c50.4,0,91.2-41.6,91.2-92
	L407.2,139.2z"/>
<path style="fill:#3CC676;" d="M380,376c0,38.4-31.2,72-69.6,72h-64h-60.8c-38.4,0-69.6-33.6-69.6-72l0,0c0-38.4-5.6-72,32.8-72H248
	h99.2C384.8,304,380,337.6,380,376L380,376z"/>
<path style="fill:#0AA06E;" d="M248,304h98.4c38.4,0,32.8,33.6,32.8,72l0,0c0,38.4-31.2,72-69.6,72h-64H184"/>
<path style="fill:#C93131;" d="M263.2,255.2c-8,8-21.6,8-30.4,0l-45.6-45.6c-8-8-8-21.6,0-30.4l45.6-45.6c8-8,21.6-8,30.4,0
	l45.6,45.6c8,8,8,21.6,0,30.4L263.2,255.2z"/>
<path style="fill:#FFC114;" d="M260.8,236.8c-7.2,7.2-18.4,7.2-25.6,0L196,197.6c-7.2-7.2-7.2-18.4,0-25.6l39.2-39.2
	c7.2-7.2,18.4-7.2,25.6,0L300,172c7.2,7.2,7.2,18.4,0,25.6L260.8,236.8z"/>
<path style="fill:#FF8A15;" d="M247.2,128c4.8,0,9.6,1.6,13.6,5.6l39.2,39.2c7.2,7.2,7.2,18.4,0,25.6l-39.2,39.2
	c-3.2,3.2-8,5.6-12.8,5.6"/>
<g>
	<path style="fill:#2F423F;" d="M240,199.2c0,2.4-4.8,4.8-8,4.8l0,0c-3.2,0-8-2.4-8-4.8v-28c0-2.4,4.8-4.8,8-4.8l0,0
		c3.2,0,8,2.4,8,4.8V199.2z"/>
	<path style="fill:#2F423F;" d="M272,199.2c0,2.4-4.8,4.8-8,4.8l0,0c-3.2,0-8-2.4-8-4.8v-28c0-2.4,4.8-4.8,8-4.8l0,0
		c3.2,0,8,2.4,8,4.8V199.2z"/>
</g>
<g>
</g>
<g>
</g>
<g>
</g>
<g>
</g>
<g>
</g>
<g>
</g>
<g>
</g>
<g>
</g>
<g>
</g>
<g>
</g>
<g>
</g>
<g>
</g>
<g>
</g>
<g>
</g>
<g>
</g>
</svg>
