<?xml version="1.0" encoding="iso-8859-1"?>
<!-- Generator: Adobe Illustrator 19.0.0, SVG Export Plug-In . SVG Version: 6.00 Build 0)  -->
<svg version="1.1" id="Layer_1" xmlns="http://www.w3.org/2000/svg" xmlns:xlink="http://www.w3.org/1999/xlink" x="0px" y="0px"
	 viewBox="0 0 512.003 512.003" style="enable-background:new 0 0 512.003 512.003;" xml:space="preserve">
<path style="fill:#FFAD00;" d="M249.062,0L249.062,0l-20.899,93.978l20.899,93.978l0,0c51.902,0,93.978-42.075,93.978-93.978
	C343.039,42.075,300.965,0,249.062,0z"/>
<g>
	<path style="fill:#FFCE2A;" d="M155.084,93.978c0,51.902,42.075,93.978,93.978,93.978V0C197.159,0,155.084,42.075,155.084,93.978z"
		/>
	<path style="fill:#FFCE2A;" d="M249.062,37.991L249.062,37.991l-20.9,55.987l20.899,55.987l0,0
		c30.872,0,55.987-25.116,55.987-55.987C305.049,63.108,279.934,37.991,249.062,37.991z"/>
</g>
<path style="fill:#FDEB95;" d="M193.076,93.978c0,30.87,25.115,55.986,55.987,55.987V37.991
	C218.191,37.991,193.076,63.108,193.076,93.978z"/>
<polygon style="fill:#E68900;" points="479.855,512 479.855,456.754 378.98,435.854 399.88,512 "/>
<polygon style="fill:#FFAD00;" points="319.904,512 399.88,512 399.88,435.854 319.904,456.754 299.004,484.377 "/>
<polygon style="fill:#E68900;" points="319.904,456.753 219.029,435.854 239.928,512 319.904,512 "/>
<polygon style="fill:#FFAD00;" points="159.952,456.753 139.053,484.377 159.952,512 239.928,512 239.928,435.854 "/>
<polygon style="fill:#E68900;" points="159.952,456.753 59.078,435.854 79.977,512 159.952,512 "/>
<rect x="0.002" y="456.756" style="fill:#FFAD00;" width="79.976" height="55.247"/>
<polygon style="fill:#FFCE2A;" points="512.002,456.754 512.002,401.507 479.855,401.507 411.127,380.608 432.026,456.754 "/>
<polygon style="fill:#FDEB95;" points="352.051,456.754 432.026,456.754 432.026,380.608 352.051,401.507 331.152,426.323 "/>
<polygon style="fill:#FFCE2A;" points="352.051,401.507 251.176,380.608 272.075,456.754 352.051,456.754 "/>
<polygon style="fill:#FDEB95;" points="192.1,401.507 171.201,426.323 192.1,456.754 272.075,456.754 272.075,380.608 "/>
<polygon style="fill:#FFCE2A;" points="192.1,401.507 91.224,380.608 112.124,456.754 192.1,456.754 "/>
<polygon style="fill:#FDEB95;" points="32.149,401.507 32.149,456.754 112.124,456.754 112.124,380.608 "/>
<polygon style="fill:#E68900;" points="479.855,401.507 479.855,346.26 378.98,325.361 399.88,401.507 "/>
<polygon style="fill:#FFAD00;" points="319.904,401.507 399.88,401.507 399.88,325.361 319.904,346.26 299.004,373.884 "/>
<polygon style="fill:#E68900;" points="319.904,401.507 319.904,346.26 219.029,325.361 239.928,401.507 "/>
<polygon style="fill:#FFAD00;" points="159.952,401.507 239.928,401.507 239.928,325.361 159.952,346.26 139.053,373.884 "/>
<polygon style="fill:#E68900;" points="159.952,401.507 159.952,346.26 59.078,325.361 79.977,401.507 "/>
<rect x="0.002" y="346.258" style="fill:#FFAD00;" width="79.976" height="55.247"/>
<polygon style="fill:#FFCE2A;" points="512.002,291.015 432.026,291.015 411.127,318.637 432.026,346.26 512.002,346.26 "/>
<polygon style="fill:#FDEB95;" points="352.051,291.015 331.152,318.637 352.051,346.26 432.026,346.26 432.026,291.015 "/>
<polygon style="fill:#FFCE2A;" points="352.051,346.26 352.051,291.015 319.904,291.015 251.176,270.114 272.075,346.26 "/>
<polygon style="fill:#FDEB95;" points="192.1,346.26 272.075,346.26 272.075,270.114 192.1,291.015 171.201,315.83 "/>
<polygon style="fill:#FFCE2A;" points="192.1,291.015 91.224,270.114 112.124,346.26 192.1,346.26 "/>
<polygon style="fill:#FDEB95;" points="32.149,291.015 32.149,346.26 112.124,346.26 112.124,270.114 "/>
<polygon style="fill:#E68900;" points="319.903,235.768 219.029,214.869 239.928,291.015 319.903,291.015 "/>
<polygon style="fill:#FFAD00;" points="159.952,235.768 139.053,263.391 159.952,291.015 239.928,291.015 239.928,214.869 
	192.1,235.768 "/>
<polygon style="fill:#E68900;" points="159.952,235.768 79.977,235.768 59.078,263.391 79.977,291.015 159.952,291.015 "/>
<rect x="0.002" y="235.771" style="fill:#FFAD00;" width="79.976" height="55.247"/>
<polygon style="fill:#FFCE2A;" points="352.051,180.521 272.075,180.521 251.176,208.145 272.075,235.768 352.051,235.768 "/>
<rect x="192.096" y="180.517" style="fill:#FDEB95;" width="79.976" height="55.247"/>
<g>
</g>
<g>
</g>
<g>
</g>
<g>
</g>
<g>
</g>
<g>
</g>
<g>
</g>
<g>
</g>
<g>
</g>
<g>
</g>
<g>
</g>
<g>
</g>
<g>
</g>
<g>
</g>
<g>
</g>
</svg>
